<svg width="20" height="20" viewBox="0 0 14 18" fill="none" xmlns="http://www.w3.org/2000/svg">
<path fill-rule="evenodd" clip-rule="evenodd" d="M6.99998 1.08329C6.99998 0.853174 6.81343 0.666626 6.58331 0.666626H3.66665C1.8257 0.666626 0.333313 2.15901 0.333313 3.99996V14C0.333313 15.8409 1.8257 17.3333 3.66665 17.3333H10.3333C12.1743 17.3333 13.6666 15.8409 13.6666 14V7.74996C13.6666 7.51984 13.4801 7.33329 13.25 7.33329H11.1666C8.86546 7.33329 6.99998 5.46781 6.99998 3.16663V1.08329ZM13.0162 5.66663C13.2933 5.66663 13.4924 5.39907 13.3593 5.15605C13.2463 4.9497 13.1038 4.75856 12.9344 4.58922L9.74406 1.39886C9.57471 1.22951 9.38357 1.08697 9.17723 0.973962C8.9342 0.840865 8.66665 1.04 8.66665 1.31708V3.16663C8.66665 4.54734 9.78593 5.66663 11.1666 5.66663H13.0162ZM4.49998 6.49996C4.03974 6.49996 3.66665 6.87306 3.66665 7.33329C3.66665 7.79353 4.03974 8.16663 4.49998 8.16663H5.33331C5.79355 8.16663 6.16665 7.79353 6.16665 7.33329C6.16665 6.87306 5.79355 6.49996 5.33331 6.49996H4.49998ZM3.66665 10.6666C3.66665 10.2064 4.03974 9.83329 4.49998 9.83329H9.49998C9.96022 9.83329 10.3333 10.2064 10.3333 10.6666C10.3333 11.1269 9.96022 11.5 9.49998 11.5H4.49998C4.03974 11.5 3.66665 11.1269 3.66665 10.6666ZM3.66665 14C3.66665 13.5397 4.03974 13.1666 4.49998 13.1666H9.49998C9.96022 13.1666 10.3333 13.5397 10.3333 14C10.3333 14.4602 9.96022 14.8333 9.49998 14.8333H4.49998C4.03974 14.8333 3.66665 14.4602 3.66665 14Z" fill="#E5E7EB"/>
</svg>
