<svg width="16" height="18" viewBox="0 0 16 18" fill="none" xmlns="http://www.w3.org/2000/svg">
<path fill-rule="evenodd" clip-rule="evenodd" d="M7.39228 0.666672C6.2228 0.666672 5.27475 1.61472 5.27475 2.7842C5.27475 2.95369 5.15787 3.17981 4.87853 3.33152C4.79257 3.3782 4.7078 3.42675 4.62426 3.47711C4.34567 3.64506 4.08414 3.63428 3.93058 3.54642C2.91075 2.9629 1.61117 3.31111 1.01971 4.32636L0.432693 5.33398C-0.159904 6.35118 0.189815 7.65639 1.21161 8.24103C1.35975 8.3258 1.49904 8.54139 1.49226 8.8622C1.49129 8.90803 1.4908 8.95397 1.4908 9.00001C1.4908 9.04605 1.49129 9.092 1.49226 9.13785C1.49905 9.45865 1.35976 9.67423 1.21162 9.75899C0.189843 10.3436 -0.159874 11.6488 0.432716 12.666L1.01975 13.6737C1.61121 14.6889 2.91078 15.0371 3.93061 14.4536C4.08416 14.3657 4.34568 14.355 4.62427 14.5229C4.7078 14.5733 4.79258 14.6218 4.87854 14.6685C5.15787 14.8202 5.27475 15.0463 5.27475 15.2158C5.27475 16.3853 6.2228 17.3333 7.39228 17.3333H8.60784C9.77732 17.3333 10.7254 16.3853 10.7254 15.2158C10.7254 15.0463 10.8422 14.8202 11.1216 14.6685C11.2075 14.6218 11.2923 14.5733 11.3758 14.5229C11.6544 14.355 11.916 14.3657 12.0695 14.4536C13.0893 15.0371 14.3889 14.6889 14.9804 13.6737L15.5674 12.666C16.16 11.6488 15.8103 10.3436 14.7885 9.759C14.6404 9.67424 14.5011 9.45866 14.5079 9.13786C14.5088 9.092 14.5093 9.04605 14.5093 9.00001C14.5093 8.95397 14.5088 8.90803 14.5079 8.86219C14.5011 8.54138 14.6404 8.32579 14.7885 8.24102C15.8103 7.65638 16.16 6.35117 15.5674 5.33397L14.9804 4.32636C14.389 3.31111 13.0894 2.9629 12.0695 3.54642C11.916 3.63428 11.6544 3.64505 11.3758 3.47711C11.2923 3.42675 11.2075 3.3782 11.1216 3.33152C10.8422 3.17981 10.7254 2.95369 10.7254 2.7842C10.7254 1.61472 9.77732 0.666672 8.60784 0.666672H7.39228ZM8 6.50001C6.61929 6.50001 5.5 7.61929 5.5 9.00001C5.5 10.3807 6.61929 11.5 8 11.5C9.38071 11.5 10.5 10.3807 10.5 9.00001C10.5 7.61929 9.38071 6.50001 8 6.50001Z" fill="#4B5563"/>
</svg>
