<svg width="20" height="20" viewBox="0 0 14 16" fill="none" xmlns="http://www.w3.org/2000/svg">
<path d="M14 0.999434C13.9999 0.851537 13.9711 0.705501 13.9157 0.571848C13.8603 0.438194 13.7797 0.32025 13.6796 0.226513C13.5795 0.132775 13.4624 0.0655789 13.3369 0.0297644C13.2113 -0.00605004 13.0804 -0.0095909 12.9535 0.0193969L4.2035 2.01947C4.00522 2.06477 3.82678 2.18715 3.69853 2.36582C3.57027 2.54449 3.50012 2.76841 3.5 2.99951V12.1139C3.21315 12.0375 2.91954 11.9992 2.625 11.9998C1.17513 11.9998 0 12.8949 0 13.9999C0 15.105 1.17513 16 2.625 16C4.07487 16 5.25 15.105 5.25 13.9999V5.81962L12.25 4.21956V10.1138C11.9631 10.0374 11.6695 9.99913 11.375 9.99977C9.92513 9.99977 8.75 10.8948 8.75 11.9998C8.75 13.1049 9.92513 13.9999 11.375 13.9999C12.8249 13.9999 14 13.1049 14 11.9998V0.999434Z" fill="#E5E7EB"/>
</svg>
