<svg width="20" height="20" viewBox="0 0 20 20" fill="none" xmlns="http://www.w3.org/2000/svg">
<path fill-rule="evenodd" clip-rule="evenodd" d="M12.6667 7.58334C12.5286 7.58334 12.4167 7.47141 12.4167 7.33334V1.83334C12.4167 1.76081 12.4463 1.70477 12.4792 1.67318C12.5076 1.64592 12.5331 1.6391 12.564 1.64325C13.142 1.72077 13.7087 1.87303 14.2498 2.09715C15.0688 2.43637 15.8129 2.93357 16.4397 3.56037C17.0665 4.18716 17.5637 4.93128 17.9029 5.75023C18.127 6.2913 18.2793 6.85804 18.3568 7.436C18.3609 7.46692 18.3541 7.49244 18.3268 7.52085C18.2953 7.55377 18.2392 7.58334 18.1667 7.58334H12.6667ZM10.9167 7.33334C10.9167 8.29984 11.7002 9.08334 12.6667 9.08334H18.1667C19.1016 9.08334 19.9863 8.30154 19.8435 7.23659C19.7487 6.5302 19.5626 5.83752 19.2887 5.1762C18.8741 4.17526 18.2664 3.26579 17.5003 2.49971C16.7342 1.73363 15.8248 1.12593 14.8238 0.711333C14.1625 0.437407 13.4698 0.251313 12.7634 0.156566C11.6985 0.0137225 10.9167 0.898405 10.9167 1.83334V7.33334ZM8.26933 4.14325C8.30025 4.1391 8.32578 4.14592 8.3542 4.17318C8.38712 4.20477 8.41669 4.26082 8.41669 4.33334V9.83334C8.41669 10.7998 9.20019 11.5833 10.1667 11.5833H15.6667C15.7392 11.5833 15.7953 11.6129 15.8268 11.6458C15.8541 11.6743 15.8609 11.6998 15.8568 11.7307C15.7204 12.7475 15.3534 13.7239 14.7791 14.5834C14.0374 15.6935 12.9832 16.5586 11.7498 17.0695C10.5164 17.5804 9.1592 17.7141 7.84983 17.4536C6.54046 17.1932 5.33772 16.5503 4.39372 15.6063C3.44972 14.6623 2.80684 13.4596 2.54639 12.1502C2.28594 10.8408 2.41961 9.48363 2.9305 8.25023C3.4414 7.01683 4.30656 5.96262 5.41659 5.22092C6.27611 4.64661 7.25257 4.27963 8.26933 4.14325ZM9.91669 4.33334C9.91669 3.39839 9.13486 2.51372 8.06992 2.65656C6.82722 2.82325 5.63378 3.27177 4.58324 3.97372C3.22653 4.88024 2.16911 6.16871 1.54468 7.6762C0.920262 9.18369 0.756884 10.8425 1.07521 12.4428C1.39354 14.0432 2.17928 15.5132 3.33306 16.667C4.48684 17.8208 5.95685 18.6065 7.5572 18.9248C9.15754 19.2431 10.8163 19.0798 12.3238 18.4553C13.8313 17.8309 15.1198 16.7735 16.0263 15.4168C16.7283 14.3663 17.1768 13.1728 17.3435 11.9301C17.4863 10.8652 16.6016 10.0833 15.6667 10.0833H10.1667C10.0286 10.0833 9.91669 9.97141 9.91669 9.83334V4.33334Z" fill="#0061FF"/>
</svg>
