<svg width="16" height="14" viewBox="0 0 16 14" fill="none" xmlns="http://www.w3.org/2000/svg">
<path fill-rule="evenodd" clip-rule="evenodd" d="M8 0.666656C6.30792 0.666656 4.95753 1.27147 4.04018 2.31731C3.13664 3.34742 2.72222 4.72546 2.72222 6.16666V7.6111C2.72222 7.81446 2.63097 8.05911 2.39305 8.37478C2.16498 8.67738 1.86891 8.96118 1.54185 9.2747L1.48643 9.32784C0.91664 9.87448 0.5 10.6664 0.5 11.6111C0.5 12.8917 1.49853 14 2.81481 14H13.1852C14.5015 14 15.5 12.8917 15.5 11.6111C15.5 10.6664 15.0834 9.87448 14.5136 9.32784L14.4581 9.27469L14.4581 9.27466C14.1311 8.96116 13.835 8.67737 13.607 8.37478C13.369 8.05911 13.2778 7.81446 13.2778 7.6111V6.16666C13.2778 4.72546 12.8634 3.34742 11.9598 2.31731C11.0425 1.27147 9.69208 0.666656 8 0.666656Z" fill="#0061FF"/>
</svg>
