<svg width="20" height="20" viewBox="0 0 20 20" fill="none" xmlns="http://www.w3.org/2000/svg">
<path fill-rule="evenodd" clip-rule="evenodd" d="M9.99998 1.66667C7.69879 1.66667 5.83331 3.53215 5.83331 5.83333C5.83331 8.13452 7.69879 10 9.99998 10C12.3012 10 14.1666 8.13452 14.1666 5.83333C14.1666 3.53215 12.3012 1.66667 9.99998 1.66667Z" fill="#E5E7EB"/>
<path fill-rule="evenodd" clip-rule="evenodd" d="M7.50001 10.8333C6.11439 10.8333 4.78187 11.4654 4.00097 12.417C3.60464 12.9 3.32602 13.4976 3.30176 14.1599C3.27699 14.8363 3.52114 15.4965 4.02466 16.0725C5.2518 17.4764 7.21107 18.3333 10 18.3333C12.789 18.3333 14.7482 17.4764 15.9754 16.0725C16.4789 15.4965 16.723 14.8363 16.6983 14.1599C16.674 13.4976 16.3954 12.9 15.9991 12.417C15.2182 11.4654 13.8856 10.8333 12.5 10.8333H7.50001Z" fill="#E5E7EB"/>
</svg>
