<svg width="15" height="17" viewBox="0 0 15 17" fill="none" xmlns="http://www.w3.org/2000/svg">
<path d="M5.93753 3.99999C5.67231 3.99999 5.41796 4.10535 5.23042 4.29288C5.04289 4.48042 4.93753 4.73477 4.93753 4.99999C4.93753 5.26521 5.04289 5.51956 5.23042 5.7071C5.41796 5.89463 5.67231 5.99999 5.93753 5.99999H11.5235L10.2305 7.29299C10.0484 7.48159 9.94758 7.73419 9.94986 7.99639C9.95214 8.25859 10.0573 8.5094 10.2427 8.69481C10.4281 8.88022 10.6789 8.98538 10.9411 8.98766C11.2033 8.98994 11.4559 8.88915 11.6445 8.70699L14.6445 5.70699C14.832 5.51946 14.9373 5.26515 14.9373 4.99999C14.9373 4.73483 14.832 4.48052 14.6445 4.29299L11.6445 1.29299C11.5523 1.19748 11.4419 1.1213 11.3199 1.06889C11.1979 1.01648 11.0667 0.988893 10.9339 0.987739C10.8012 0.986585 10.6695 1.01189 10.5466 1.06217C10.4237 1.11245 10.312 1.1867 10.2181 1.28059C10.1242 1.37449 10.05 1.48614 9.99971 1.60904C9.94943 1.73193 9.92413 1.86361 9.92528 1.99639C9.92643 2.12917 9.95402 2.26039 10.0064 2.38239C10.0588 2.5044 10.135 2.61474 10.2305 2.70699L11.5235 3.99999H5.93753ZM9.93753 14C10.2027 14 10.4571 13.8946 10.6446 13.7071C10.8322 13.5196 10.9375 13.2652 10.9375 13C10.9375 12.7348 10.8322 12.4804 10.6446 12.2929C10.4571 12.1053 10.2027 12 9.93753 12H4.35153L5.64453 10.707C5.74004 10.6147 5.81622 10.5044 5.86863 10.3824C5.92104 10.2604 5.94863 10.1292 5.94978 9.99639C5.95094 9.86361 5.92563 9.73193 5.87535 9.60904C5.82507 9.48614 5.75082 9.37449 5.65693 9.28059C5.56303 9.1867 5.45138 9.11245 5.32848 9.06217C5.20559 9.01189 5.07391 8.98658 4.94113 8.98774C4.80835 8.98889 4.67713 9.01648 4.55513 9.06889C4.43312 9.1213 4.32278 9.19748 4.23053 9.29299L1.23053 12.293C1.04306 12.4805 0.937744 12.7348 0.937744 13C0.937744 13.2652 1.04306 13.5195 1.23053 13.707L4.23053 16.707C4.41913 16.8891 4.67174 16.9899 4.93393 16.9877C5.19613 16.9854 5.44694 16.8802 5.63235 16.6948C5.81776 16.5094 5.92293 16.2586 5.9252 15.9964C5.92748 15.7342 5.82669 15.4816 5.64453 15.293L4.35153 14H9.93753Z" fill="#0061FF"/>
</svg>
