<svg width="20" height="20" viewBox="0 0 19 19" fill="none" xmlns="http://www.w3.org/2000/svg">
<path fill-rule="evenodd" clip-rule="evenodd" d="M4.00002 4.16683L8.43533 0.998596C9.1066 0.519099 10.05 0.866427 10.25 1.66673L6.50002 4.16683H4.00002ZM14.3972 2.85842L14.8334 4.16683H7.75002L11.4183 1.80852C12.516 1.10281 13.9846 1.6204 14.3972 2.85842ZM4.29169 5.08334C2.22062 5.08334 0.541687 6.76227 0.541687 8.83334V14.5C0.541687 16.5711 2.22062 18.25 4.29169 18.25H13.2917C15.3628 18.25 17.0417 16.5711 17.0417 14.5V13.9103V13.7454C17.9038 13.6815 18.5834 12.9618 18.5834 12.0833C18.5834 11.2049 17.9038 10.4852 17.0417 10.4213V9.42312V8.83334C17.0417 6.76227 15.3628 5.08334 13.2917 5.08334H4.29169ZM16.9167 10.4167H16.9167V9.25H15.7069H14.4167C12.8519 9.25 11.5834 10.5185 11.5834 12.0833C11.5834 13.6481 12.8519 14.9167 14.4167 14.9167H16.9167V13.75H16.9167H14.4167C13.4962 13.75 12.75 13.0038 12.75 12.0833C12.75 11.1629 13.4962 10.4167 14.4167 10.4167H16.9167Z" fill="#E5E7EB"/>
</svg>
