<svg width="20" height="20" viewBox="0 0 20 20" fill="none" xmlns="http://www.w3.org/2000/svg">
<path fill-rule="evenodd" clip-rule="evenodd" d="M10 1.66666C8.30792 1.66666 6.95753 2.27147 6.04018 3.31731C5.13664 4.34742 4.72222 5.72546 4.72222 7.16666V8.6111C4.72222 8.81446 4.63097 9.05911 4.39305 9.37478C4.16498 9.67738 3.86891 9.96118 3.54185 10.2747L3.48643 10.3278C2.91664 10.8745 2.5 11.6664 2.5 12.6111C2.5 13.8917 3.49853 15 4.81481 15H15.1852C16.5015 15 17.5 13.8917 17.5 12.6111C17.5 11.6664 17.0834 10.8745 16.5136 10.3278L16.4581 10.2747L16.4581 10.2747C16.1311 9.96116 15.835 9.67737 15.607 9.37478C15.369 9.05911 15.2778 8.81446 15.2778 8.6111V7.16666C15.2778 5.72546 14.8634 4.34742 13.9598 3.31731C13.0425 2.27147 11.6921 1.66666 10 1.66666Z" fill="#4B5563"/>
<path fill-rule="evenodd" clip-rule="evenodd" d="M7.86916 15.9746C8.2514 15.7182 8.76907 15.8203 9.02541 16.2025C9.10823 16.326 9.2369 16.4425 9.4099 16.5287C9.5831 16.615 9.787 16.6637 9.99996 16.6637C10.2129 16.6637 10.4168 16.615 10.59 16.5287C10.763 16.4425 10.8917 16.326 10.9745 16.2025C11.2309 15.8203 11.7485 15.7182 12.1308 15.9746C12.513 16.2309 12.6151 16.7486 12.3587 17.1308C12.1028 17.5124 11.7453 17.8152 11.3333 18.0205C10.9215 18.2257 10.4621 18.3304 9.99996 18.3304C9.53783 18.3304 9.07846 18.2257 8.66666 18.0205C8.25467 17.8152 7.89712 17.5124 7.64119 17.1308C7.38485 16.7486 7.48691 16.2309 7.86916 15.9746Z" fill="#4B5563"/>
</svg>
