<svg width="20" height="20" viewBox="0 0 20 20" fill="none" xmlns="http://www.w3.org/2000/svg">
<path fill-rule="evenodd" clip-rule="evenodd" d="M9.39228 1.66667C8.2228 1.66667 7.27475 2.61472 7.27475 3.7842C7.27475 3.95369 7.15787 4.17981 6.87853 4.33152C6.79257 4.3782 6.7078 4.42675 6.62426 4.47711C6.34567 4.64506 6.08414 4.63428 5.93058 4.54642C4.91075 3.9629 3.61117 4.31111 3.01971 5.32636L2.43269 6.33398C1.8401 7.35118 2.18982 8.65639 3.21161 9.24103C3.35975 9.3258 3.49904 9.54139 3.49226 9.8622C3.49129 9.90803 3.4908 9.95397 3.4908 10C3.4908 10.0461 3.49129 10.092 3.49226 10.1378C3.49905 10.4587 3.35976 10.6742 3.21162 10.759C2.18984 11.3436 1.84013 12.6488 2.43272 13.666L3.01975 14.6737C3.61121 15.6889 4.91078 16.0371 5.93061 15.4536C6.08416 15.3657 6.34568 15.355 6.62427 15.5229C6.7078 15.5733 6.79258 15.6218 6.87854 15.6685C7.15787 15.8202 7.27475 16.0463 7.27475 16.2158C7.27475 17.3853 8.2228 18.3333 9.39228 18.3333H10.6078C11.7773 18.3333 12.7254 17.3853 12.7254 16.2158C12.7254 16.0463 12.8422 15.8202 13.1216 15.6685C13.2075 15.6218 13.2923 15.5733 13.3758 15.5229C13.6544 15.355 13.916 15.3657 14.0695 15.4536C15.0893 16.0371 16.3889 15.6889 16.9804 14.6737L17.5674 13.666C18.16 12.6488 17.8103 11.3436 16.7885 10.759C16.6404 10.6742 16.5011 10.4587 16.5079 10.1379C16.5088 10.092 16.5093 10.046 16.5093 10C16.5093 9.95397 16.5088 9.90803 16.5079 9.86219C16.5011 9.54138 16.6404 9.32579 16.7885 9.24102C17.8103 8.65638 18.16 7.35117 17.5674 6.33397L16.9804 5.32636C16.389 4.31111 15.0894 3.9629 14.0695 4.54642C13.916 4.63428 13.6544 4.64505 13.3758 4.47711C13.2923 4.42675 13.2075 4.3782 13.1216 4.33152C12.8422 4.17981 12.7254 3.95369 12.7254 3.7842C12.7254 2.61472 11.7773 1.66667 10.6078 1.66667H9.39228ZM10 7.50001C8.61929 7.50001 7.5 8.61929 7.5 10C7.5 11.3807 8.61929 12.5 10 12.5C11.3807 12.5 12.5 11.3807 12.5 10C12.5 8.61929 11.3807 7.50001 10 7.50001Z" fill="#4B5563"/>
</svg>
